<?xml version="1.0" ?><svg viewBox="0 0 37.24 49.35" xmlns="http://www.w3.org/2000/svg"><defs><style>.cls-1{fill:#353535;}</style></defs><g data-name="Layer 2" id="Layer_2"><g data-name="Layer 1" id="Layer_1-2"><g id="cup"><path class="cls-1" d="M35.89,5.18h-4V1.35A1.34,1.34,0,0,0,30.51,0H6.73A1.35,1.35,0,0,0,5.38,1.35V5.18h-4A1.34,1.34,0,0,0,0,6.53v6.35a1.34,1.34,0,0,0,1.35,1.35H4.19c.17,2,1.25,14.22,1.4,15.88h0l1.59,18a1.35,1.35,0,0,0,1.34,1.23h20.2a1.35,1.35,0,0,0,1.34-1.23l1.59-18h0c.14-1.59,1.24-14,1.4-15.88h2.84a1.34,1.34,0,0,0,1.35-1.35V6.53A1.34,1.34,0,0,0,35.89,5.18ZM7.92,25.9h2.95a7.88,7.88,0,0,0,0,2.74H8.16C8.11,28,8,26.56,7.92,25.9Zm21.25,1.62-.1,1.12H26.42a8.13,8.13,0,0,0-.05-2.74h2.95Zm-5.35-.11a5.2,5.2,0,0,1-5.2,5.2c-6.88-.24-6.88-10.16,0-10.4A5.2,5.2,0,0,1,23.82,27.41Zm3.66,19.24H9.75L8.4,31.34h3.37a7.93,7.93,0,0,0,13.69,0h3.38Zm2.07-23.44H25.3a7.93,7.93,0,0,0-13.36,0H7.68l-.79-9H30.35Zm5-11.68H2.7V7.87H6.81s18.69,0,18.73,0a1.35,1.35,0,0,0,0-2.69H8.08V2.7H29.16V6.53a1.34,1.34,0,0,0,1.35,1.34h4Z"/></g></g></g></svg>