<?xml version="1.0" ?><svg viewBox="0 0 47.58 46.94" xmlns="http://www.w3.org/2000/svg"><defs><style>.cls-1{fill:#353535;}</style></defs><g data-name="Layer 2" id="Layer_2"><g data-name="Layer 1" id="Layer_1-2"><g id="burger"><path class="cls-1" d="M5,17A5,5,0,0,0,5,27.08H42.57c6.21-.15,6.85-9,.76-10l.85-.86a1.75,1.75,0,0,0,2.11-1.65V12.21A12.22,12.22,0,0,0,34.08,0H13.51A12.23,12.23,0,0,0,1.3,12.21v2.33A1.65,1.65,0,0,0,3,16.19H24.44l.8.8Zm0,7.39a2.35,2.35,0,0,1,0-4.69H27.93l4.7,4.69Zm37.55-4.69a2.35,2.35,0,0,1,0,4.69H36l4.7-4.69ZM4,12.21A9.52,9.52,0,0,1,13.51,2.7H34.08A9.68,9.68,0,0,1,43.6,13.49H4Zm36.37,4-6.06,6.06-6.06-6.06Z"/><path class="cls-1" d="M45,27.78a5.24,5.24,0,0,0-3.57,1.37,2.69,2.69,0,0,1-3.79,0,5.37,5.37,0,0,0-7.14,0,2.69,2.69,0,0,1-3.79,0,5.36,5.36,0,0,0-7.13,0,2.69,2.69,0,0,1-3.79,0,5.37,5.37,0,0,0-7.14,0,2.59,2.59,0,0,1-1.89.78,2.63,2.63,0,0,1-1.9-.78,5.23,5.23,0,0,0-3.56-1.37,1.35,1.35,0,0,0,0,2.69,2.6,2.6,0,0,1,1.89.79,5.34,5.34,0,0,0,7.14,0,2.67,2.67,0,0,1,3.79,0,5.37,5.37,0,0,0,7.13,0,2.67,2.67,0,0,1,3.79,0,5.32,5.32,0,0,0,7.13,0,2.68,2.68,0,0,1,3.8,0,5.32,5.32,0,0,0,7.13,0,2.62,2.62,0,0,1,1.9-.79A1.35,1.35,0,0,0,45,27.78Z"/><path class="cls-1" d="M44.93,34H2.67a1.37,1.37,0,0,0-1.35,1.43A12.22,12.22,0,0,0,13.51,46.94H34.08A12.21,12.21,0,0,0,46.27,35.42,1.36,1.36,0,0,0,44.93,34ZM34.08,44.25H13.51A9.53,9.53,0,0,1,4.2,36.69H43.39A9.51,9.51,0,0,1,34.08,44.25Z"/><path class="cls-1" d="M15,8.19a1.65,1.65,0,0,0,0,3.3A1.65,1.65,0,0,0,15,8.19Z"/><path class="cls-1" d="M23.8,8.19a1.65,1.65,0,0,0,0,3.3A1.65,1.65,0,0,0,23.8,8.19Z"/><path class="cls-1" d="M32.56,11.49a1.65,1.65,0,0,0,0-3.3A1.65,1.65,0,0,0,32.56,11.49Z"/><path class="cls-1" d="M19.82,4.33a1.65,1.65,0,0,0,0,3.3A1.65,1.65,0,0,0,19.82,4.33Z"/><path class="cls-1" d="M28.58,7.63a1.65,1.65,0,0,0,0-3.3A1.65,1.65,0,0,0,28.58,7.63Z"/></g></g></g></svg>