<svg width="214" height="214" viewBox="0 0 214 214" fill="none" xmlns="http://www.w3.org/2000/svg">
<g clip-path="url(#clip0_27_72)">
<path d="M186.124 64.8871C185.812 64.519 185.423 64.2231 184.985 64.0202C184.547 63.8172 184.07 63.7119 183.587 63.7117H183.387C182.907 63.7111 182.432 63.8145 181.995 64.0147C180.387 64.7573 178.692 65.4932 176.927 66.2324V30.4131C176.927 29.53 176.576 28.683 175.952 28.0585C175.327 27.434 174.48 27.0832 173.597 27.0832H163.608V17.0936C163.608 16.2105 163.257 15.3635 162.632 14.7391C162.008 14.1146 161.161 13.7638 160.278 13.7638H150.288V3.7742C150.288 2.89106 149.937 2.0441 149.313 1.41963C148.688 0.79516 147.841 0.444336 146.958 0.444336L133.639 0.444336C132.756 0.444336 131.909 0.79516 131.284 1.41963C130.66 2.0441 130.309 2.89106 130.309 3.7742V7.10406H123.649V3.7742C123.649 2.89106 123.298 2.0441 122.674 1.41963C122.05 0.79516 121.203 0.444336 120.319 0.444336L93.6806 0.444336C92.7974 0.444336 91.9505 0.79516 91.326 1.41963C90.7015 2.0441 90.3507 2.89106 90.3507 3.7742V7.10406H83.691V3.7742C83.691 2.89106 83.3402 2.0441 82.7157 1.41963C82.0912 0.79516 81.2443 0.444336 80.3611 0.444336L67.0417 0.444336C66.1585 0.444336 65.3116 0.79516 64.6871 1.41963C64.0626 2.0441 63.7118 2.89106 63.7118 3.7742V13.7638H53.7222C52.8391 13.7638 51.9921 14.1146 51.3677 14.7391C50.7432 15.3635 50.3924 16.2105 50.3924 17.0936V27.0832H40.4028C39.5197 27.0832 38.6727 27.434 38.0482 28.0585C37.4238 28.683 37.0729 29.53 37.0729 30.4131V66.2324C35.3081 65.4932 33.6132 64.7573 32.0049 64.0147C31.4981 63.8144 30.9581 63.7116 30.4132 63.7117C29.9306 63.7117 29.4537 63.8166 29.0156 64.0191C28.5775 64.2217 28.1887 64.5171 27.8761 64.8848C27.5634 65.2525 27.3345 65.6838 27.2051 66.1488C27.0757 66.6138 27.0489 67.1013 27.1266 67.5777L50.4357 210.762C50.5629 211.542 50.9633 212.251 51.5654 212.763C52.1675 213.274 52.932 213.555 53.7222 213.555H160.278C161.068 213.555 161.833 213.274 162.435 212.763C163.037 212.251 163.437 211.542 163.564 210.762L186.873 67.5777C186.951 67.1017 186.924 66.6146 186.794 66.1501C186.665 65.6855 186.436 65.2546 186.124 64.8871ZM170.267 33.7429V68.8763L169.981 68.9829C168.056 69.6988 166.058 70.3947 163.964 71.084L163.608 71.2039V33.7429H170.267ZM156.948 20.4235V73.2651L156.375 73.4316C155.806 73.5981 155.256 73.7645 154.71 73.9077C154.164 74.0509 153.548 74.2407 152.982 74.3872L151.45 74.7901L150.288 75.0865V20.4235H156.948ZM136.969 7.10406H143.628V76.6116L143.429 76.6515C142.853 76.7681 142.247 76.8813 141.647 76.9845C141.184 77.0711 140.732 77.161 140.255 77.2476C139.589 77.3708 138.873 77.4873 138.174 77.6072L136.969 77.8203V7.10406ZM130.309 13.7638V78.7727C129.696 78.8526 129.087 78.9325 128.474 79.0058C127.349 79.1389 126.223 79.2655 125.101 79.3787C124.615 79.4286 124.132 79.4653 123.649 79.5119V13.7638H130.309ZM116.99 10.4339V80.028H116.933C114.575 80.1679 112.401 80.2611 110.33 80.3077V7.10406H116.99V10.4339ZM97.0104 7.10406H103.67V80.321C101.599 80.2744 99.4246 80.1812 97.067 80.0413H97.0104V7.10406ZM90.3507 13.7638V79.5119C89.8679 79.4653 89.385 79.4286 88.8989 79.3787C87.7767 79.2655 86.6512 79.1389 85.5257 79.0058C84.913 78.9325 84.3037 78.8526 83.691 78.7727V13.7638H90.3507ZM70.3715 7.10406H77.0313V77.8203L75.8358 77.6172C75.1299 77.4973 74.4206 77.3808 73.7414 77.2576L72.4094 77.0045C71.7934 76.888 71.1707 76.7714 70.5747 76.6515L70.3715 76.6116V7.10406ZM57.0521 20.4235H63.7118V75.0865L62.5564 74.7901L61.0346 74.3872C60.4486 74.2307 59.8492 74.0542 59.2465 73.8911C58.7237 73.7446 58.2042 73.6014 57.6715 73.4449C57.4683 73.3883 57.2552 73.3217 57.0521 73.2617V20.4235ZM50.3924 33.7429V71.2039L50.0061 71.0773C47.9249 70.3881 45.9337 69.6955 44.0124 68.9829L43.7326 68.8763V33.7429H50.3924ZM39.1907 74.274C40.5992 74.8268 42.0577 75.3629 43.5395 75.8957C46.4332 76.9313 49.47 77.9402 52.7532 78.9392C53.9986 79.3188 55.2096 79.6773 56.3861 80.0147C59.9358 81.0137 63.2057 81.8694 66.3058 82.562C70.3316 83.4578 74.7703 84.2569 79.8683 85.0028C84.3669 85.6688 88.9289 86.1516 93.4308 86.4746C102.455 87.2172 111.525 87.2172 120.549 86.4746C125.051 86.1416 129.613 85.6555 134.112 85.0028C135.384 84.8164 136.618 84.6266 137.815 84.4334C141.404 83.8507 144.654 83.2347 147.674 82.562C148.71 82.3323 149.759 82.0859 150.834 81.8228C154.061 81.0303 157.494 80.078 161.237 78.9425C166.202 77.4307 170.64 75.9056 174.799 74.2807C176.374 73.668 177.876 73.062 179.321 72.4592L173.707 107H123.649C122.766 107 121.919 107.351 121.295 107.976L107 122.271L92.7049 107.976C92.0806 107.351 91.2338 107 90.3507 107H40.2929L34.6688 72.4526C36.1139 73.0553 37.6157 73.6613 39.1907 74.274ZM41.4017 113.66H88.9855L104.659 129.333C105.284 129.958 106.13 130.308 107.013 130.308C107.896 130.308 108.743 129.958 109.368 129.333L125.028 113.66H172.598L163.941 166.937H50.0594L41.4017 113.66ZM157.444 206.896H56.5493L51.1349 173.597H162.865L157.444 206.896Z" fill="black"/>
</g>
<defs>
<clipPath id="clip0_27_72">
<rect width="213.111" height="213.111" fill="white" transform="translate(0.444458 0.444336)"/>
</clipPath>
</defs>
</svg>
