<svg width="162" height="213" viewBox="0 0 162 213" fill="none" xmlns="http://www.w3.org/2000/svg">
<path d="M155.303 22.5112H138.093V6.033C138.099 5.25759 137.949 4.4889 137.651 3.77294C137.353 3.05699 136.914 2.40848 136.36 1.86622C135.805 1.32396 135.147 0.899091 134.425 0.617045C133.703 0.335 132.931 0.201571 132.156 0.224743H29.8443C28.3039 0.224743 26.8265 0.836682 25.7373 1.92594C24.648 3.0152 24.0361 4.49256 24.0361 6.033V22.5112H6.82643C6.05133 22.4881 5.27953 22.6215 4.5572 22.9035C3.83487 23.1856 3.17687 23.6105 2.62256 24.1527C2.06824 24.695 1.62902 25.3435 1.33117 26.0594C1.03332 26.7754 0.882963 27.5441 0.889096 28.3195V55.6398C0.883371 56.4042 1.0297 57.162 1.31956 57.8693C1.60943 58.5766 2.03704 59.2192 2.57753 59.7597C3.11802 60.3001 3.7606 60.7278 4.46787 61.0176C5.17515 61.3075 5.93301 61.4538 6.69735 61.4481H18.9162C19.6476 70.0529 24.2942 122.628 24.9396 129.77L31.7804 207.214C31.9091 208.656 32.5716 209.998 33.638 210.977C34.7045 211.955 36.0981 212.501 37.5457 212.506H124.454C125.902 212.501 127.296 211.955 128.362 210.977C129.428 209.998 130.091 208.656 130.22 207.214L137.06 129.77C137.663 122.93 142.395 69.5366 143.084 61.4481H155.303C156.067 61.4538 156.825 61.3075 157.532 61.0176C158.239 60.7278 158.882 60.3001 159.423 59.7597C159.963 59.2192 160.391 58.5766 160.681 57.8693C160.97 57.162 161.117 56.4042 161.111 55.6398V28.3195C161.117 27.5552 160.97 26.7973 160.681 26.09C160.391 25.3827 159.963 24.7402 159.423 24.1997C158.882 23.6592 158.239 23.2316 157.532 22.9417C156.825 22.6518 156.067 22.5055 155.303 22.5112ZM34.9642 111.657H47.6563C46.9679 115.557 46.9679 119.546 47.6563 123.446H35.9968C35.7817 120.692 35.3084 114.497 34.9642 111.657ZM126.39 118.627L125.96 123.446H114.559C115.155 119.532 115.082 115.546 114.344 111.657H127.036L126.39 118.627ZM103.373 118.154C103.373 124.087 101.015 129.778 96.8198 133.974C92.6242 138.169 86.9336 140.526 81 140.526C51.3994 139.494 51.3994 96.8139 81 95.7813C86.9336 95.7813 92.6242 98.1385 96.8198 102.334C101.015 106.53 103.373 112.22 103.373 118.154ZM119.119 200.932H42.8376L37.0294 135.062H51.5285C54.5358 140.204 58.8366 144.468 64.0033 147.432C69.1699 150.395 75.0223 151.954 80.9785 151.954C86.9347 151.954 92.7872 150.395 97.9538 147.432C103.12 144.468 107.421 140.204 110.429 135.062H124.971L119.119 200.932ZM128.025 100.084H109.74C106.655 95.2605 102.405 91.2914 97.3821 88.5421C92.3595 85.7929 86.7258 84.3518 81 84.3518C75.2742 84.3518 69.6405 85.7929 64.618 88.5421C59.5954 91.2914 55.3455 95.2605 52.2599 100.084H33.9316L30.5327 61.362H131.467L128.025 100.084ZM149.537 49.8316H12.5056V34.0847H30.1885C30.1885 34.0847 110.601 34.0847 110.773 34.0847C112.221 33.9597 113.57 33.2959 114.553 32.2245C115.536 31.1531 116.082 29.752 116.082 28.298C116.082 26.844 115.536 25.4429 114.553 24.3715C113.57 23.3001 112.221 22.6363 110.773 22.5112H35.6526V11.8413H126.347V28.3195C126.347 29.0802 126.498 29.8335 126.79 30.5357C127.083 31.238 127.511 31.8755 128.051 32.4114C128.591 32.9473 129.232 33.3711 129.936 33.6583C130.641 33.9455 131.395 34.0904 132.156 34.0847H149.365L149.537 49.8316Z" fill="#353535"/>
</svg>
