<svg width="196" height="196" viewBox="0 0 196 196" fill="none" xmlns="http://www.w3.org/2000/svg">
<g clip-path="url(#clip0_27_49)">
<path d="M21.2112 71.1987C15.7486 71.1987 10.5097 73.3983 6.647 77.3136C2.78433 81.229 0.614311 86.5393 0.614311 92.0764C0.614311 97.6135 2.78433 102.924 6.647 106.839C10.5097 110.755 15.7486 112.954 21.2112 112.954H174.748C200.126 112.333 202.742 75.6725 177.854 71.5301L181.327 67.9676C182.348 68.1858 183.403 68.175 184.419 67.9362C185.435 67.6973 186.387 67.2361 187.209 66.5849C188.03 65.9337 188.701 65.1083 189.175 64.1664C189.649 63.2246 189.913 62.1891 189.95 61.1327V51.3566C189.94 37.9456 184.679 25.0871 175.324 15.6041C165.968 6.12114 153.283 0.788802 140.052 0.777832L55.9889 0.777832C42.7616 0.79974 30.0823 6.13559 20.7292 15.6162C11.3762 25.0968 6.11208 37.949 6.09047 51.3566V61.0084C6.09005 61.9237 6.271 62.8297 6.62258 63.6728C6.97415 64.5158 7.48919 65.2787 8.13714 65.9162C8.78509 66.5536 9.55276 67.0527 10.3946 67.3837C11.2364 67.7148 12.1353 67.8711 13.0378 67.8434H100.656L103.926 71.1573L21.2112 71.1987ZM21.2112 101.811C18.7777 101.65 16.4959 100.556 14.8286 98.7524C13.1614 96.9484 12.2336 94.5691 12.2336 92.0971C12.2336 89.6252 13.1614 87.2459 14.8286 85.4419C16.4959 83.6379 18.7777 82.5444 21.2112 82.3832H114.919L134.126 101.811H21.2112ZM174.666 82.3832C177.1 82.5444 179.382 83.6379 181.049 85.4419C182.716 87.2459 183.644 89.6252 183.644 92.0971C183.644 94.5691 182.716 96.9484 181.049 98.7524C179.382 100.556 177.1 101.65 174.666 101.811H147.898L167.106 82.3832H174.666ZM17.1245 51.3566C17.1353 40.9119 21.2334 30.8982 28.5196 23.5127C35.8057 16.1273 45.6847 11.9733 55.9889 11.9623H140.052C145.597 12.0181 151.068 13.2548 156.11 15.5921C161.153 17.9294 165.655 21.3152 169.323 25.5297C172.991 29.7443 175.745 34.6935 177.405 40.0562C179.064 45.419 179.593 51.0755 178.957 56.6589H17.1245V51.3566ZM165.757 67.9262L140.992 93.0292L116.227 67.9262H165.757Z" fill="#353535"/>
<path d="M184.679 115.854C179.284 115.815 174.073 117.842 170.089 121.529C168.03 123.601 165.246 124.763 162.345 124.763C159.444 124.763 156.66 123.601 154.601 121.529C150.582 117.904 145.39 115.901 140.011 115.901C134.632 115.901 129.44 117.904 125.422 121.529C123.362 123.601 120.579 124.763 117.677 124.763C114.776 124.763 111.992 123.601 109.933 121.529C105.921 117.907 100.736 115.906 95.3641 115.906C89.9918 115.906 84.8068 117.907 80.7951 121.529C78.7359 123.601 75.9521 124.763 73.0508 124.763C70.1494 124.763 67.3657 123.601 65.3065 121.529C61.2882 117.904 56.0963 115.901 50.7171 115.901C45.3378 115.901 40.146 117.904 36.1276 121.529C35.1239 122.571 33.9214 123.394 32.5935 123.95C31.2657 124.505 29.8401 124.781 28.4038 124.76C26.9619 124.777 25.5314 124.5 24.1974 123.945C22.8634 123.389 21.6533 122.568 20.6391 121.529C16.6673 117.848 11.4719 115.822 6.09047 115.854C4.7145 115.974 3.43312 116.613 2.49947 117.645C1.56583 118.676 1.04784 120.025 1.04784 121.425C1.04784 122.825 1.56583 124.174 2.49947 125.206C3.43312 126.237 4.7145 126.877 6.09047 126.997C7.52944 126.984 8.95603 127.267 10.2837 127.83C11.6114 128.392 12.8126 129.222 13.8143 130.269C17.8204 133.92 23.0169 135.939 28.4038 135.939C33.7906 135.939 38.9871 133.92 42.9932 130.269C44.0075 129.234 45.214 128.412 46.5431 127.851C47.8722 127.29 49.2977 127.001 50.7375 127.001C52.1773 127.001 53.6028 127.29 54.9319 127.851C56.261 128.412 57.4675 129.234 58.4818 130.269C62.4975 133.883 67.681 135.878 73.0508 135.878C78.4206 135.878 83.604 133.883 87.6198 130.269C88.6341 129.234 89.8406 128.412 91.1697 127.851C92.4988 127.29 93.9243 127.001 95.3641 127.001C96.8039 127.001 98.2294 127.29 99.5585 127.851C100.888 128.412 102.094 129.234 103.108 130.269C107.104 133.925 112.295 135.949 117.677 135.949C123.06 135.949 128.251 133.925 132.246 130.269C133.264 129.232 134.474 128.409 135.807 127.848C137.139 127.286 138.568 126.997 140.011 126.997C141.454 126.997 142.883 127.286 144.216 127.848C145.548 128.409 146.758 129.232 147.776 130.269C151.771 133.925 156.962 135.949 162.345 135.949C167.727 135.949 172.919 133.925 176.914 130.269C177.923 129.221 179.132 128.391 180.466 127.828C181.8 127.266 183.233 126.983 184.679 126.997C186.055 126.877 187.336 126.237 188.27 125.206C189.203 124.174 189.721 122.825 189.721 121.425C189.721 120.025 189.203 118.676 188.27 117.645C187.336 116.613 186.055 115.974 184.679 115.854Z" fill="#353535"/>
<path d="M184.393 141.62H11.6892C10.9398 141.63 10.2 141.793 9.51383 142.098C8.82762 142.404 8.20892 142.846 7.69441 143.398C7.17989 143.951 6.78005 144.602 6.51857 145.314C6.25709 146.026 6.13931 146.784 6.1722 147.543C6.91217 160.431 12.4818 172.545 21.742 181.408C31.0022 190.271 43.2531 195.212 55.9889 195.222H140.052C152.797 195.222 165.059 190.278 174.323 181.404C183.586 172.531 189.148 160.4 189.869 147.502C189.902 146.748 189.785 145.996 189.525 145.289C189.266 144.582 188.869 143.935 188.358 143.386C187.848 142.838 187.234 142.399 186.552 142.095C185.871 141.792 185.137 141.63 184.393 141.62ZM140.052 184.079H55.9889C47.0678 184.066 38.4216 180.948 31.4962 175.248C24.5708 169.548 19.786 161.61 17.9419 152.763H178.099C176.269 161.617 171.488 169.564 164.559 175.266C157.631 180.969 148.977 184.081 140.052 184.079Z" fill="#353535"/>
<path d="M62.078 34.7041C60.2897 34.7041 58.5746 35.4242 57.31 36.706C56.0454 37.9878 55.335 39.7263 55.335 41.5391C55.335 43.3518 56.0454 45.0903 57.31 46.3721C58.5746 47.6539 60.2897 48.374 62.078 48.374C63.8664 48.374 65.5815 47.6539 66.8461 46.3721C68.1106 45.0903 68.8211 43.3518 68.8211 41.5391C68.8211 39.7263 68.1106 37.9878 66.8461 36.706C65.5815 35.4242 63.8664 34.7041 62.078 34.7041Z" fill="#353535"/>
<path d="M98.0408 34.7041C96.2525 34.7041 94.5374 35.4242 93.2728 36.706C92.0082 37.9878 91.2978 39.7263 91.2978 41.5391C91.2978 43.3518 92.0082 45.0903 93.2728 46.3721C94.5374 47.6539 96.2525 48.374 98.0408 48.374C99.8292 48.374 101.544 47.6539 102.809 46.3721C104.073 45.0903 104.784 43.3518 104.784 41.5391C104.784 39.7263 104.073 37.9878 102.809 36.706C101.544 35.4242 99.8292 34.7041 98.0408 34.7041Z" fill="#353535"/>
<path d="M133.84 48.374C135.629 48.374 137.344 47.6539 138.608 46.3721C139.873 45.0903 140.583 43.3518 140.583 41.5391C140.583 39.7263 139.873 37.9878 138.608 36.706C137.344 35.4242 135.629 34.7041 133.84 34.7041C132.052 34.7041 130.337 35.4242 129.072 36.706C127.808 37.9878 127.097 39.7263 127.097 41.5391C127.097 43.3518 127.808 45.0903 129.072 46.3721C130.337 47.6539 132.052 48.374 133.84 48.374Z" fill="#353535"/>
<path d="M81.7759 18.7144C79.9875 18.7144 78.2724 19.4345 77.0078 20.7163C75.7433 21.9981 75.0328 23.7366 75.0328 25.5493C75.0328 27.3621 75.7433 29.1006 77.0078 30.3824C78.2724 31.6642 79.9875 32.3843 81.7759 32.3843C83.5642 32.3843 85.2793 31.6642 86.5439 30.3824C87.8085 29.1006 88.5189 27.3621 88.5189 25.5493C88.5189 23.7366 87.8085 21.9981 86.5439 20.7163C85.2793 19.4345 83.5642 18.7144 81.7759 18.7144Z" fill="#353535"/>
<path d="M117.575 32.3843C119.364 32.3843 121.079 31.6642 122.343 30.3824C123.608 29.1006 124.318 27.3621 124.318 25.5493C124.318 23.7366 123.608 21.9981 122.343 20.7163C121.079 19.4345 119.364 18.7144 117.575 18.7144C115.787 18.7144 114.072 19.4345 112.807 20.7163C111.543 21.9981 110.832 23.7366 110.832 25.5493C110.832 27.3621 111.543 29.1006 112.807 30.3824C114.072 31.6642 115.787 32.3843 117.575 32.3843Z" fill="#353535"/>
</g>
<defs>
<clipPath id="clip0_27_49">
<rect width="194.444" height="194.444" fill="white" transform="translate(0.777779 0.777832)"/>
</clipPath>
</defs>
</svg>
